<svg xmlns="http://www.w3.org/2000/svg" viewBox="0 0 978.3 724.3" fill="#F7F7F0" fill-rule="nonzero" role="img" aria-label="H.OIKOS">
  <title>H.OIKOS</title>
  <path d="M495.8 198.41L495.58 196.15L478.17 196.15L478.05 198.54C476.94 223.84 473.54 249.04 467.97 273.45C461.92 299.94 454.53 325.23 448.75 344.31L447.99 346.86L450.58 347.46C463.21 350.39 475.99 351.91 488.59 352C501.1 351.84 513.84 350.24 526.45 347.24L529.05 346.62L528.25 344.07C515.02 301.42 500.81 250.76 495.8 198.41"/>
  <path d="M468.16 78.61C473.8 103.01 477.26 128.21 478.44 153.49L478.56 155.87L496 155.84L496.2 153.58C501.07 101.19 515.14 50.5 528.25 7.83L529.05 5.28L526.44 4.66C513.85 1.7 501.1 0.13 488.51 0C475.96 0.12 463.19 1.68 450.57 4.64L447.98 5.26L448.76 7.8C454.58 26.84 462.03 52.09 468.16 78.61"/>
  <path d="M459.6 196.15L318.75 196.15L318.72 198.62C318.71 200.62 318.71 203.29 318.88 206.18C319.25 212.9 320.22 219.67 321.76 226.3L322.31 228.62L324.64 228.19C359.89 221.84 403.65 213.97 446.72 212.2C442.52 235.16 414.98 250 389.39 262.13C377.94 267.54 364.41 273.13 348.04 279.2L345.17 280.28L346.8 282.87C356.04 297.67 372.35 311.87 395.64 325.29L397.11 325.68L398.13 324.83C416.59 309.4 431.3 291.44 441.84 271.46C452.5 251.27 458.48 229.83 459.62 207.62ZM459.6 196.15"/>
  <path d="M658.27 196.15L517.42 196.15L517.42 207.79C518.55 229.82 524.54 251.23 535.21 271.43C545.75 291.4 560.47 309.36 579.26 325.06L580.64 325.71L581.8 325.04C604.74 311.8 621.04 297.59 630.26 282.81L631.88 280.21L629 279.14C612.68 273.09 599.15 267.51 587.66 262.08C562.06 249.97 534.49 235.15 530.31 212.17C573.37 213.93 617.15 221.79 652.39 228.12L654.72 228.55L655.27 226.23C656.8 219.64 657.77 212.87 658.15 206.11C658.28 203.89 658.32 201.58 658.3 198.63ZM658.27 196.15"/>
  <path d="M517.4 155.69L655.79 156.06L658.25 156.06L658.29 153.59C658.33 150.69 658.28 148.36 658.16 146.02C657.79 139.23 656.83 132.46 655.33 125.89L654.78 123.59L652.33 124.03C617.1 130.27 573.35 138.02 530.33 139.68C534.58 116.71 562.17 101.95 587.8 89.9C599.35 84.48 612.89 78.92 629.18 72.93L632.06 71.88L630.45 69.27C621.26 54.46 604.98 40.22 581.72 26.72L580.25 26.32L579.22 27.17C560.72 42.55 545.97 60.47 535.36 80.42C524.65 100.6 518.61 122.03 517.42 144.21ZM517.4 155.69"/>
  <path d="M457.1 156.06L459.6 156.06L459.62 144.45C458.54 122.38 452.62 100.94 442 80.73C431.52 60.75 416.85 42.75 398.1 26.99L396.72 26.33L395.56 27C372.58 40.17 356.24 54.34 346.99 69.1L345.35 71.7L348.22 72.77C364.54 78.87 378.05 84.48 389.53 89.94C415.08 102.11 442.58 117 446.74 139.99C403.68 138.13 359.93 130.16 324.7 123.73L322.37 123.31L321.81 125.62C320.28 132.18 319.29 138.95 318.88 145.73C318.75 148.09 318.7 150.47 318.72 153.22L318.75 155.69ZM457.1 156.06"/>
  <path d="M209.04 595.54C200.75 595.54 194.25 602.07 194.25 610.41C194.25 618.88 200.89 625.76 209.04 625.76C217.34 625.76 223.83 619.02 223.83 610.41C223.83 601.93 217.47 595.54 209.04 595.54"/>
  <path d="M322.19 612.85C306.17 612.85 292.6 605.57 282.95 591.82C273.85 578.86 268.84 560.74 268.84 540.8C268.84 520.85 273.85 502.73 282.95 489.77C292.6 476.02 306.17 468.75 322.19 468.75C353.73 468.75 375.76 498.38 375.76 540.8C375.76 583.22 353.73 612.85 322.19 612.85M322.19 455.34C298.59 455.34 278.66 464.01 264.57 480.43C251.44 495.72 244.21 517.17 244.21 540.8C244.21 564.44 251.44 585.88 264.57 601.17C278.66 617.58 298.59 626.26 322.19 626.26C345.66 626.26 365.57 617.59 379.77 601.18C393.07 585.81 400.39 564.36 400.39 540.8C400.39 517.23 393.07 495.79 379.77 480.42C365.57 464.01 345.66 455.34 322.19 455.34"/>
  <path d="M440.45 625.76L464.09 625.76L464.09 458.22L440.45 458.22ZM440.45 625.76"/>
  <path d="M737.12 612.85C721.1 612.85 707.53 605.57 697.88 591.82C688.78 578.86 683.77 560.74 683.77 540.8C683.77 520.85 688.78 502.73 697.88 489.77C707.53 476.02 721.1 468.75 737.12 468.75C768.65 468.75 790.69 498.38 790.69 540.8C790.69 583.22 768.65 612.85 737.12 612.85M737.12 455.34C713.51 455.34 693.59 464.01 679.5 480.43C666.37 495.72 659.14 517.17 659.14 540.8C659.14 564.44 666.37 585.88 679.5 601.17C693.59 617.58 713.51 626.26 737.12 626.26C760.59 626.26 780.5 617.59 794.69 601.18C807.99 585.81 815.32 564.36 815.32 540.8C815.32 517.23 807.99 495.79 794.69 480.42C780.49 464.01 760.59 455.34 737.12 455.34"/>
  <path d="M913.51 522.67C893.22 517.63 872.24 512.41 871.42 498.08C870.5 481.98 885.32 468.88 905.89 467.62C906.24 467.59 906.6 467.58 906.96 467.57C927.51 466.88 949 482.62 961.97 507.98L962.6 509.22L969.66 476.6L969.37 476.41C947.57 461.92 927.29 455.17 907.46 455.83C906.71 455.86 905.97 455.89 905.22 455.94C870.14 458.09 847.55 476.63 849 502.07C850.69 531.75 879.57 539.23 905.04 545.83C928.35 552.15 952.45 558.67 953.64 579.55C954.67 597.69 937.56 612.47 913.82 613.92C913.47 613.94 913.12 613.96 912.76 613.97C889.82 614.73 864.75 594.86 852.81 566.28L852.22 564.86L844.56 597.31L844.5 597.59L844.71 597.79C863.75 616.15 888.91 626.49 912.44 625.7C913.12 625.68 913.81 625.65 914.49 625.61C956.87 623.01 978.3 596.63 976.96 573.12C974.96 538.18 940.89 529.58 913.51 522.67"/>
  <path d="M110.9 568.39L110.75 568.39L110.75 626.25L135.38 626.25L135.38 562.66L110.9 562.66ZM110.9 568.39"/>
  <path d="M587.12 549.82L568.47 567.11L608.66 625.55L608.8 625.76L638.61 625.76L587.45 550.31ZM587.12 549.82"/>
  <path d="M620.85 460.11L538.21 537.84L538.21 460.11L514.89 460.11L514.89 625.76L538.21 625.76L538.21 591.36C538.21 575.42 544.54 560.13 555.81 548.86L644.27 460.4L643.99 460.11ZM620.85 460.11"/>
  <path d="M209.55 533.04L135.38 533.04L135.38 455.34L110.75 455.34L110.75 504.58L110.9 504.58L110.9 533.04L24.42 533.04L24.42 455.34L0 455.34L0 626.26L24.42 626.26L24.42 587.08C24.42 566.6 41.1 549.93 61.58 549.93L209.55 549.93ZM209.55 533.04"/>
  <path d="M4.85 700.02L4.85 709.87L25.95 709.87L25.95 714.21L0 714.21L0 681.45L25.9 681.45L25.9 685.79L4.85 685.79L4.85 695.78L22.06 695.78L22.06 700.02ZM4.85 700.02"/>
  <path d="M69.16 703C68.86 705.46 68.02 707.56 66.66 709.31C65.3 711.06 63.53 712.41 61.33 713.35C59.15 714.29 56.65 714.76 53.86 714.76C51.34 714.76 49.03 714.38 46.92 713.6C44.82 712.83 42.99 711.72 41.45 710.27C39.89 708.82 38.69 707.05 37.81 704.94C36.94 702.84 36.5 700.48 36.5 697.85C36.5 695.2 36.94 692.82 37.81 690.73C38.69 688.65 39.89 686.87 41.45 685.41C42.99 683.95 44.82 682.82 46.92 682.05C49.03 681.28 51.34 680.89 53.86 680.89C56.69 680.89 59.2 681.37 61.39 682.33C63.58 683.29 65.35 684.65 66.71 686.41C68.07 688.18 68.91 690.3 69.21 692.75L64.56 692.75C64.13 691.17 63.41 689.83 62.39 688.71C61.39 687.6 60.16 686.75 58.71 686.16C57.26 685.57 55.65 685.29 53.86 685.29C51.58 685.29 49.49 685.77 47.6 686.75C45.72 687.72 44.21 689.14 43.09 690.99C41.96 692.84 41.4 695.13 41.4 697.85C41.4 700.54 41.96 702.82 43.09 704.69C44.21 706.56 45.72 707.97 47.6 708.93C49.49 709.9 51.58 710.37 53.86 710.37C55.65 710.37 57.26 710.09 58.69 709.51C60.11 708.94 61.33 708.1 62.34 706.99C63.36 705.88 64.1 704.55 64.56 703ZM69.16 703"/>
  <path d="M96.92 710.37C99.35 710.37 101.49 709.9 103.39 708.96C105.27 708.02 106.77 706.62 107.88 704.77C108.99 702.92 109.54 700.61 109.54 697.85C109.54 695.09 108.99 692.79 107.88 690.94C106.77 689.09 105.27 687.68 103.39 686.72C101.49 685.76 99.35 685.29 96.92 685.29C94.56 685.29 92.42 685.76 90.51 686.72C88.59 687.68 87.08 689.09 85.97 690.94C84.86 692.79 84.3 695.09 84.3 697.85C84.3 700.61 84.86 702.92 85.97 704.77C87.08 706.62 88.59 708.02 90.51 708.96C92.42 709.9 94.56 710.37 96.92 710.37M96.92 714.76C93.53 714.76 90.5 714.07 87.86 712.7C85.22 711.31 83.15 709.36 81.65 706.84C80.15 704.31 79.41 701.32 79.41 697.85C79.41 694.36 80.15 691.34 81.65 688.81C83.15 686.29 85.22 684.34 87.86 682.96C90.5 681.58 93.53 680.89 96.92 680.89C100.35 680.89 103.39 681.58 106.01 682.96C108.63 684.34 110.71 686.29 112.22 688.81C113.73 691.34 114.49 694.36 114.49 697.85C114.49 701.32 113.73 704.31 112.22 706.84C110.71 709.36 108.63 711.31 106.01 712.7C103.39 714.07 100.35 714.76 96.92 714.76"/>
  <path d="M123.88 703.46L128.52 703.46C128.62 704.77 129.07 705.96 129.86 707.02C130.65 708.07 131.73 708.91 133.09 709.51C134.45 710.12 136.05 710.42 137.86 710.42C139.44 710.42 140.76 710.2 141.8 709.77C142.85 709.33 143.62 708.73 144.14 707.97C144.67 707.22 144.93 706.31 144.93 705.27C144.93 704.23 144.64 703.4 144.07 702.77C143.5 702.15 142.64 701.63 141.49 701.21C140.35 700.79 138.94 700.38 137.26 699.97C135.78 699.6 134.32 699.16 132.89 698.63C131.46 698.11 130.15 697.47 128.95 696.69C127.76 695.92 126.8 694.98 126.07 693.89C125.35 692.8 124.99 691.47 124.99 689.93C124.99 688.27 125.44 686.77 126.35 685.41C127.26 684.05 128.6 682.95 130.36 682.13C132.13 681.3 134.28 680.89 136.8 680.89C140.71 680.89 143.66 681.87 145.66 683.82C147.66 685.77 148.63 688.38 148.56 691.64L144.02 691.64C143.92 689.36 143.2 687.72 141.85 686.72C140.5 685.73 138.76 685.23 136.6 685.23C134.75 685.23 133.17 685.61 131.85 686.36C130.55 687.12 129.89 688.31 129.89 689.93C129.89 690.63 130.04 691.24 130.34 691.77C130.64 692.29 131.15 692.77 131.85 693.2C132.56 693.64 133.51 694.07 134.71 694.47C135.9 694.88 137.39 695.31 139.17 695.78C140.52 696.09 141.83 696.47 143.09 696.94C144.35 697.41 145.48 698 146.49 698.71C147.51 699.42 148.3 700.32 148.89 701.43C149.48 702.54 149.78 703.91 149.78 705.52C149.78 707.24 149.35 708.8 148.51 710.2C147.67 711.59 146.37 712.7 144.6 713.52C142.83 714.35 140.55 714.76 137.76 714.76C135.54 714.76 133.61 714.48 131.98 713.91C130.35 713.33 128.99 712.59 127.89 711.68C126.8 710.77 125.94 709.8 125.31 708.76C124.69 707.72 124.28 706.72 124.06 705.78C123.84 704.84 123.78 704.06 123.88 703.46"/>
  <path d="M158.61 703.46L163.25 703.46C163.35 704.77 163.8 705.96 164.59 707.02C165.38 708.07 166.46 708.91 167.83 709.51C169.19 710.12 170.78 710.42 172.59 710.42C174.18 710.42 175.49 710.2 176.53 709.77C177.58 709.33 178.36 708.73 178.88 707.97C179.4 707.22 179.66 706.31 179.66 705.27C179.66 704.23 179.38 703.4 178.81 702.77C178.23 702.15 177.37 701.63 176.23 701.21C175.08 700.79 173.67 700.38 171.99 699.97C170.51 699.6 169.05 699.16 167.62 698.63C166.19 698.11 164.88 697.47 163.69 696.69C162.49 695.92 161.53 694.98 160.81 693.89C160.08 692.8 159.72 691.47 159.72 689.93C159.72 688.27 160.18 686.77 161.08 685.41C161.99 684.05 163.33 682.95 165.1 682.13C166.87 681.3 169.01 680.89 171.53 680.89C175.44 680.89 178.39 681.87 180.4 683.82C182.4 685.77 183.37 688.38 183.3 691.64L178.76 691.64C178.65 689.36 177.93 687.72 176.58 686.72C175.24 685.73 173.49 685.23 171.33 685.23C169.48 685.23 167.9 685.61 166.59 686.36C165.28 687.12 164.62 688.31 164.62 689.93C164.62 690.63 164.77 691.24 165.08 691.77C165.38 692.29 165.88 692.77 166.59 693.2C167.29 693.64 168.24 694.07 169.44 694.47C170.63 694.88 172.12 695.31 173.91 695.78C175.25 696.09 176.56 696.47 177.82 696.94C179.08 697.41 180.22 698 181.22 698.71C182.24 699.42 183.03 700.32 183.62 701.43C184.21 702.54 184.51 703.91 184.51 705.52C184.51 707.24 184.09 708.8 183.25 710.2C182.41 711.59 181.1 712.7 179.33 713.52C177.57 714.35 175.29 714.76 172.49 714.76C170.27 714.76 168.35 714.48 166.72 713.91C165.08 713.33 163.72 712.59 162.63 711.68C161.53 710.77 160.67 709.8 160.05 708.76C159.43 707.72 159.01 706.72 158.79 705.78C158.57 704.84 158.51 704.06 158.61 703.46"/>
  <path d="M196.58 681.45L201.43 681.45L201.43 714.21L196.58 714.21ZM196.58 681.45"/>
  <path d="M213.24 703.46L217.88 703.46C217.98 704.77 218.43 705.96 219.22 707.02C220.01 708.07 221.09 708.91 222.45 709.51C223.81 710.12 225.4 710.42 227.22 710.42C228.8 710.42 230.12 710.2 231.16 709.77C232.21 709.33 232.98 708.73 233.5 707.97C234.03 707.22 234.29 706.31 234.29 705.27C234.29 704.23 234 703.4 233.43 702.77C232.86 702.15 232 701.63 230.85 701.21C229.71 700.79 228.3 700.38 226.62 699.97C225.13 699.6 223.68 699.16 222.25 698.63C220.81 698.11 219.51 697.47 218.31 696.69C217.12 695.92 216.15 694.98 215.43 693.89C214.71 692.8 214.35 691.47 214.35 689.93C214.35 688.27 214.8 686.77 215.71 685.41C216.62 684.05 217.96 682.95 219.72 682.13C221.49 681.3 223.64 680.89 226.16 680.89C230.06 680.89 233.02 681.87 235.02 683.82C237.02 685.77 237.99 688.38 237.92 691.64L233.38 691.64C233.28 689.36 232.56 687.72 231.21 686.72C229.86 685.73 228.12 685.23 225.96 685.23C224.11 685.23 222.53 685.61 221.21 686.36C219.9 687.12 219.25 688.31 219.25 689.93C219.25 690.63 219.4 691.24 219.7 691.77C220 692.29 220.51 692.77 221.21 693.2C221.92 693.64 222.87 694.07 224.06 694.47C225.26 694.88 226.75 695.31 228.53 695.78C229.88 696.09 231.19 696.47 232.45 696.94C233.71 697.41 234.84 698 235.85 698.71C236.87 699.42 237.66 700.32 238.25 701.43C238.84 702.54 239.13 703.91 239.13 705.52C239.13 707.24 238.71 708.8 237.87 710.2C237.03 711.59 235.73 712.7 233.96 713.52C232.19 714.35 229.91 714.76 227.12 714.76C224.9 714.76 222.97 714.48 221.34 713.91C219.71 713.33 218.35 712.59 217.25 711.68C216.15 710.77 215.3 709.8 214.67 708.76C214.05 707.72 213.63 706.72 213.42 705.78C213.2 704.84 213.13 704.06 213.24 703.46"/>
  <path d="M258.98 685.29L263.87 685.29L263.87 714.21L258.98 714.21ZM247.06 681.45L275.79 681.45L275.79 685.79L247.06 685.79ZM247.06 681.45"/>
  <path d="M290.53 700.02L290.53 709.87L311.63 709.87L311.63 714.21L285.68 714.21L285.68 681.45L311.58 681.45L311.58 685.79L290.53 685.79L290.53 695.78L307.74 695.78L307.74 700.02ZM290.53 700.02"/>
  <path d="M344.65 711.48L342.57 711.48L358.68 681.45L363.53 681.45L363.53 714.21L358.68 714.21L358.68 689.07L359.74 689.32L346.16 714.21L341.06 714.21L327.48 689.37L328.54 689.12L328.54 714.21L323.69 714.21L323.69 681.45L328.54 681.45ZM344.65 711.48"/>
  <path d="M380.63 701.74L398.2 701.74L398.2 706.08L380.63 706.08ZM373.51 714.21L386.89 681.45L392.04 681.45L405.52 714.21L400.27 714.21L388.56 684.62L390.37 684.62L378.71 714.21ZM373.51 714.21"/>
  <path d="M435.6 702.9L435.6 698.66L447.36 698.66C449.31 698.66 450.89 698.07 452.08 696.89C453.28 695.72 453.87 694.17 453.87 692.25C453.87 690.27 453.28 688.7 452.08 687.56C450.89 686.41 449.31 685.84 447.36 685.84L436.41 685.84L436.41 714.21L431.56 714.21L431.56 681.45L447.16 681.45C448.78 681.45 450.28 681.67 451.68 682.13C453.07 682.58 454.3 683.26 455.37 684.17C456.42 685.08 457.25 686.21 457.83 687.56C458.42 688.9 458.72 690.47 458.72 692.25C458.72 694 458.42 695.55 457.83 696.89C457.25 698.24 456.42 699.36 455.37 700.25C454.3 701.15 453.07 701.81 451.68 702.24C450.28 702.68 448.78 702.9 447.16 702.9ZM435.6 702.9"/>
  <path d="M470.44 701.74L488 701.74L488 706.08L470.44 706.08ZM463.31 714.21L476.69 681.45L481.84 681.45L495.32 714.21L490.07 714.21L478.36 684.62L480.18 684.62L468.51 714.21ZM463.31 714.21"/>
  <path d="M510.16 696.94L522.17 696.94C524.33 696.94 525.95 696.4 527.05 695.33C528.13 694.25 528.69 692.84 528.69 691.09C528.69 689.41 528.13 688.11 527.05 687.2C525.95 686.29 524.33 685.84 522.17 685.84L510.16 685.84ZM505.31 714.21L505.31 681.45L522.17 681.45C524.53 681.45 526.56 681.79 528.26 682.48C529.96 683.17 531.26 684.22 532.17 685.61C533.08 687.01 533.53 688.78 533.53 690.94C533.53 692.41 533.28 693.67 532.8 694.7C532.31 695.72 531.65 696.57 530.81 697.25C529.96 697.92 528.97 698.44 527.83 698.81C526.69 699.18 525.46 699.42 524.14 699.52L523.79 699.22C525.77 699.29 527.44 699.5 528.79 699.87C530.13 700.24 531.17 700.91 531.89 701.87C532.61 702.82 532.98 704.25 532.98 706.13L532.98 714.21L528.08 714.21L528.08 706.28C528.08 704.97 527.86 703.95 527.42 703.2C526.99 702.46 526.23 701.94 525.15 701.64C524.08 701.33 522.56 701.18 520.61 701.18L510.16 701.18L510.16 714.21ZM505.31 714.21"/>
  <path d="M549.74 701.74L567.31 701.74L567.31 706.08L549.74 706.08ZM542.62 714.21L555.99 681.45L561.15 681.45L574.62 714.21L569.37 714.21L557.67 684.62L559.48 684.62L547.82 714.21ZM542.62 714.21"/>
  <path d="M604.86 701.74L622.42 701.74L622.42 706.08L604.86 706.08ZM597.74 714.21L611.12 681.45L616.26 681.45L629.74 714.21L624.49 714.21L612.78 684.62L614.6 684.62L602.94 714.21ZM597.74 714.21"/>
  <path d="M644.58 696.94L656.6 696.94C658.75 696.94 660.37 696.4 661.47 695.33C662.56 694.25 663.11 692.84 663.11 691.09C663.11 689.41 662.56 688.11 661.47 687.2C660.37 686.29 658.75 685.84 656.6 685.84L644.58 685.84ZM639.74 714.21L639.74 681.45L656.6 681.45C658.95 681.45 660.98 681.79 662.68 682.48C664.38 683.17 665.69 684.22 666.59 685.61C667.5 687.01 667.96 688.78 667.96 690.94C667.96 692.41 667.71 693.67 667.22 694.7C666.73 695.72 666.07 696.57 665.23 697.25C664.39 697.92 663.4 698.44 662.25 698.81C661.11 699.18 659.88 699.42 658.56 699.52L658.21 699.22C660.2 699.29 661.87 699.5 663.21 699.87C664.55 700.24 665.59 700.91 666.31 701.87C667.04 702.82 667.4 704.25 667.4 706.13L667.4 714.21L662.5 714.21L662.5 706.28C662.5 704.97 662.29 703.95 661.85 703.2C661.41 702.46 660.65 701.94 659.57 701.64C658.5 701.33 656.99 701.18 655.03 701.18L644.58 701.18L644.58 714.21ZM639.74 714.21"/>
  <path d="M693.8 712.04L698.6 712.04L698.6 724.3L693.8 724.3ZM696.17 710.37C698.6 710.37 700.75 709.9 702.64 708.96C704.52 708.02 706.02 706.62 707.13 704.77C708.24 702.92 708.8 700.61 708.8 697.85C708.8 695.09 708.24 692.79 707.13 690.94C706.02 689.09 704.52 687.68 702.64 686.72C700.75 685.76 698.6 685.29 696.17 685.29C693.82 685.29 691.68 685.76 689.76 686.72C687.85 687.68 686.33 689.09 685.22 690.94C684.11 692.79 683.56 695.09 683.56 697.85C683.56 700.61 684.11 702.92 685.22 704.77C686.33 706.62 687.85 708.02 689.76 708.96C691.68 709.9 693.82 710.37 696.17 710.37M696.17 714.76C692.78 714.76 689.75 714.07 687.12 712.7C684.47 711.31 682.4 709.36 680.91 706.84C679.4 704.31 678.66 701.32 678.66 697.85C678.66 694.35 679.4 691.34 680.91 688.81C682.4 686.29 684.47 684.34 687.12 682.96C689.75 681.58 692.78 680.89 696.17 680.89C699.61 680.89 702.64 681.58 705.26 682.96C707.89 684.34 709.96 686.29 711.47 688.81C712.99 691.34 713.74 694.35 713.74 697.85C713.74 701.32 712.99 704.31 711.47 706.84C709.96 709.36 707.89 711.31 705.26 712.7C702.64 714.07 699.61 714.76 696.17 714.76"/>
  <path d="M750.49 701.03L750.49 681.45L755.34 681.45L755.34 701.23C755.34 703.19 755.1 704.9 754.61 706.38C754.12 707.87 753.42 709.15 752.51 710.22C751.61 711.29 750.54 712.16 749.31 712.82C748.08 713.47 746.71 713.96 745.22 714.29C743.72 714.61 742.13 714.76 740.45 714.76C738.7 714.76 737.06 714.61 735.55 714.29C734.04 713.96 732.65 713.47 731.39 712.82C730.12 712.16 729.05 711.29 728.15 710.22C727.26 709.15 726.58 707.87 726.09 706.38C725.6 704.9 725.35 703.19 725.35 701.23L725.35 681.45L730.2 681.45L730.2 701.03C730.2 703.56 730.66 705.49 731.59 706.84C732.51 708.18 733.75 709.11 735.3 709.61C736.85 710.12 738.56 710.37 740.45 710.37C742.27 710.37 743.93 710.12 745.44 709.61C746.96 709.11 748.18 708.18 749.11 706.84C750.03 705.49 750.49 703.56 750.49 701.03"/>
  <path d="M769.38 681.45L774.22 681.45L774.22 714.21L769.38 714.21ZM769.38 681.45"/>
  <path d="M797.04 685.29L801.94 685.29L801.94 714.21L797.04 714.21ZM785.12 681.45L813.85 681.45L813.85 685.79L785.12 685.79ZM785.12 681.45"/>
  <path d="M828.59 700.02L828.59 709.87L849.69 709.87L849.69 714.21L823.74 714.21L823.74 681.45L849.64 681.45L849.64 685.79L828.59 685.79L828.59 695.78L845.81 695.78L845.81 700.02ZM828.59 700.02"/>
  <path d="M870.54 685.29L875.44 685.29L875.44 714.21L870.54 714.21ZM858.62 681.45L887.35 681.45L887.35 685.79L858.62 685.79ZM858.62 681.45"/>
  <path d="M910.82 710.37C913.25 710.37 915.4 709.9 917.29 708.96C919.17 708.02 920.67 706.62 921.78 704.77C922.89 702.92 923.45 700.61 923.45 697.85C923.45 695.09 922.89 692.79 921.78 690.94C920.67 689.09 919.17 687.68 917.29 686.72C915.4 685.76 913.25 685.29 910.82 685.29C908.47 685.29 906.33 685.76 904.42 686.72C902.5 687.68 900.98 689.09 899.87 690.94C898.76 692.79 898.21 695.09 898.21 697.85C898.21 700.61 898.76 702.92 899.87 704.77C900.98 706.62 902.5 708.02 904.42 708.96C906.33 709.9 908.47 710.37 910.82 710.37M910.82 714.76C907.43 714.76 904.4 714.07 901.76 712.7C899.12 711.31 897.05 709.36 895.56 706.84C894.06 704.31 893.31 701.32 893.31 697.85C893.31 694.36 894.06 691.34 895.56 688.81C897.05 686.29 899.12 684.34 901.76 682.96C904.4 681.58 907.43 680.89 910.82 680.89C914.26 680.89 917.29 681.58 919.91 682.96C922.54 684.34 924.61 686.29 926.12 688.81C927.63 691.34 928.39 694.36 928.39 697.85C928.39 701.32 927.63 704.31 926.12 706.84C924.61 709.36 922.54 711.31 919.91 712.7C917.29 714.07 914.26 714.76 910.82 714.76"/>
  <path d="M937.78 703.46L942.42 703.46C942.53 704.77 942.97 705.96 943.76 707.02C944.55 708.07 945.63 708.91 946.99 709.51C948.36 710.12 949.95 710.42 951.76 710.42C953.35 710.42 954.66 710.2 955.7 709.77C956.75 709.33 957.53 708.73 958.05 707.97C958.57 707.22 958.83 706.31 958.83 705.27C958.83 704.23 958.55 703.4 957.98 702.77C957.4 702.15 956.54 701.63 955.4 701.21C954.26 700.79 952.85 700.38 951.16 699.97C949.68 699.6 948.22 699.16 946.8 698.63C945.36 698.11 944.05 697.47 942.86 696.69C941.66 695.92 940.7 694.98 939.98 693.89C939.26 692.8 938.9 691.47 938.9 689.93C938.9 688.27 939.35 686.77 940.26 685.41C941.17 684.05 942.51 682.95 944.27 682.13C946.04 681.3 948.19 680.89 950.71 680.89C954.61 680.89 957.56 681.87 959.57 683.82C961.57 685.77 962.54 688.38 962.47 691.64L957.93 691.64C957.83 689.36 957.1 687.72 955.75 686.72C954.41 685.73 952.66 685.23 950.5 685.23C948.65 685.23 947.07 685.61 945.76 686.36C944.45 687.12 943.79 688.31 943.79 689.93C943.79 690.63 943.94 691.24 944.24 691.77C944.55 692.29 945.05 692.77 945.76 693.2C946.46 693.64 947.42 694.07 948.61 694.47C949.8 694.88 951.29 695.31 953.08 695.78C954.42 696.09 955.73 696.47 956.99 696.94C958.25 697.41 959.39 698 960.4 698.71C961.41 699.42 962.21 700.32 962.8 701.43C963.39 702.54 963.68 703.91 963.68 705.52C963.68 707.24 963.26 708.8 962.42 710.2C961.58 711.59 960.28 712.7 958.5 713.52C956.74 714.35 954.46 714.76 951.66 714.76C949.44 714.76 947.52 714.48 945.89 713.91C944.25 713.33 942.89 712.59 941.8 711.68C940.7 710.77 939.84 709.8 939.22 708.76C938.6 707.72 938.18 706.72 937.96 705.78C937.74 704.84 937.68 704.06 937.78 703.46"/>
</svg>
